<svg width="1440" height="1024" viewBox="0 0 1440 1024" fill="none" xmlns="http://www.w3.org/2000/svg">
<g clip-path="url(#clip0)">
<path fill-rule="evenodd" clip-rule="evenodd" d="M-44.9622 119.514L16.7549 102.885C78.4719 86.2554 201.906 52.9968 326.908 57.7367C451.909 62.4766 578.479 105.215 703.676 114.705C828.874 124.194 952.7 100.435 1076.92 86.1761C1201.14 71.9167 1325.75 67.157 1388.05 64.7771L1450.36 62.3973L1482.22 834.853L1419.92 837.233C1357.61 839.612 1233 844.372 1108.39 849.132C983.782 853.892 859.172 858.651 734.563 863.411C609.953 868.171 485.343 872.931 360.733 877.69C236.123 882.45 111.514 887.21 49.2088 889.59L-13.0961 891.969L-44.9622 119.514Z" fill="#2463A6"/>
<path fill-rule="evenodd" clip-rule="evenodd" d="M1485.07 903.362L1423.35 920.018C1361.63 936.674 1238.18 969.986 1113.18 965.3C988.189 960.613 861.644 917.927 736.455 908.49C611.266 899.053 487.433 922.866 363.213 937.179C238.993 951.491 114.385 956.304 52.081 958.711L-10.2229 961.117L-41.7364 188.648L20.5674 186.241C82.8713 183.835 207.479 179.022 332.087 174.209C456.695 169.396 581.302 164.583 705.91 159.77C830.518 154.957 955.126 150.144 1079.73 145.331C1204.34 140.518 1328.95 135.705 1391.25 133.298L1453.56 130.892L1485.07 903.362Z" fill="#2463A6"/>
</g>
<defs>
<clipPath id="clip0">
<rect width="1440" height="1024" fill="white"/>
</clipPath>
</defs>
</svg>
